<svg width="389" height="358" viewBox="0 0 389 358" fill="none" xmlns="http://www.w3.org/2000/svg">
<path d="M304.429 101.84C304.602 101.32 305.362 100.653 305.829 100.666C306.549 100.68 307.562 101.04 307.922 101.6C308.656 102.773 309.029 104.16 309.642 105.68C312.362 103.946 314.429 102.04 316.482 100.093C318.402 98.2531 320.336 96.3998 322.376 94.6931C331.282 87.3198 339.496 79.3598 345.176 69.0931C346.696 66.3331 348.616 63.7865 350.296 61.1065C351.536 59.1331 352.802 57.1465 353.856 55.0798C356.442 50.0398 357.256 44.9065 356.776 39.7065L359.736 39.4131C359.962 41.6665 360.189 43.9198 360.349 46.1731C360.616 50.0931 359.682 53.7998 357.962 57.2931C356.936 59.3865 355.882 61.4798 354.709 63.4931C352.509 67.2265 350.056 70.8131 347.989 74.6131C343.269 83.2665 336.322 89.9598 329.149 96.4665C323.976 101.16 318.642 105.706 313.402 110.333C313.056 110.64 312.896 111.16 312.576 111.693C313.376 112.746 314.256 113.733 314.922 114.853C315.522 115.853 315.136 117.28 314.296 118.053C313.429 118.866 312.469 118.72 311.509 118.293C310.909 118.013 310.269 117.733 309.802 117.293C307.469 115.106 305.522 112.64 304.296 109.64C303.216 107.013 303.536 104.413 304.429 101.84Z" fill="black"/>
<path d="M180.122 38.9331C179.056 39.2664 178.256 39.3731 177.642 39.7598C176.242 40.6531 175.002 41.8264 173.562 42.6131C172.989 42.9331 171.909 42.7598 171.269 42.4131C170.442 41.9598 170.576 40.9864 170.936 40.1731C171.762 38.2531 173.269 36.9064 175.016 35.9198C179.722 33.2531 184.842 31.8531 190.256 31.6398C190.896 31.6131 191.589 31.7998 192.176 32.0664C193.162 32.5064 193.869 33.3864 193.562 34.4264C193.362 35.0664 192.536 35.6931 191.856 35.9598C191.109 36.2398 190.202 36.0398 189.376 36.1331C187.589 36.3464 185.802 36.5998 183.749 36.8798C183.856 39.6264 183.962 42.0931 184.042 44.5464C184.416 55.4264 186.296 66.0664 189.229 76.5331C189.536 77.6531 189.909 78.7731 190.349 79.8531C192.442 84.9464 196.642 87.5331 202.202 87.1331C203.522 87.0264 204.829 86.7464 206.136 86.4931C217.816 84.1464 228.202 87.5331 237.922 93.7331C240.989 95.6798 242.896 98.5731 244.109 101.986C246.856 109.72 247.522 117.56 245.496 125.56C245.176 126.84 244.842 128.12 244.429 129.76C245.389 129.76 246.216 129.946 246.909 129.733C254.589 127.4 261.869 124.226 268.589 119.72C278.322 113.173 287.296 105.786 295.242 97.1598C297.162 95.0798 299.202 93.1064 301.216 91.1198C311.429 80.9864 320.496 69.9198 328.589 58.0398C329.616 56.5331 330.522 54.9331 331.376 53.3064C332.936 50.3198 332.762 47.1198 331.896 44.0398C330.669 39.7198 326.509 37.5064 322.056 38.6531C320.122 39.1464 318.216 39.7998 316.402 40.6264C308.829 44.1198 301.496 47.9198 295.416 53.8931C287.656 61.5198 280.696 69.7598 274.416 78.6264C271.522 82.7064 268.576 86.7464 265.469 90.6664C261.989 95.0664 256.189 95.5864 251.816 91.9998C250.536 90.9598 249.482 89.6264 248.336 88.4264C246.522 86.4931 245.789 84.2531 245.976 81.5731C246.336 76.3998 247.176 71.3064 248.696 66.3598C252.922 52.6664 259.176 40.0664 269.082 29.4931C269.642 28.9064 270.122 28.2531 270.602 27.6931C269.962 26.4264 269.109 26.9464 268.402 27.0798C267.109 27.3331 265.842 27.8798 264.562 27.9064C263.936 27.9331 263.082 27.1998 262.709 26.5731C262.496 26.2264 262.882 25.2398 263.296 24.8531C263.989 24.1731 264.856 23.5731 265.762 23.2398C269.376 21.8798 273.056 20.8931 276.989 21.7064C278.282 21.9864 279.642 21.9598 280.962 22.1198C282.176 22.2798 283.296 22.7998 283.736 23.9598C284.002 24.6531 284.002 25.6131 283.722 26.3064C283.536 26.7464 282.642 27.1464 282.082 27.1331C280.602 27.0798 279.136 26.7731 277.322 26.5198C275.576 28.6264 273.776 30.7731 272.016 32.9464C270.242 35.1598 268.376 37.3064 266.802 39.6664C259.976 49.8798 255.136 60.9731 252.536 72.9998C251.976 75.5998 251.669 78.2664 251.456 80.9198C251.176 84.3464 255.002 88.7198 258.376 88.7731C259.242 88.7998 260.362 88.2264 260.936 87.5598C263.069 85.0131 265.056 82.3331 267.069 79.6664C271.589 73.6931 275.842 67.4798 280.682 61.7731C285.082 56.5731 290.082 51.8798 294.896 47.0398C296.176 45.7464 297.682 44.6264 299.242 43.6798C305.509 39.8798 311.869 36.3331 318.829 33.8398C326.896 30.9464 336.682 34.7064 337.922 46.0531C338.309 49.6131 337.856 53.0531 336.082 56.2131C335.029 58.1064 333.962 59.9998 332.722 61.7731C326.589 70.5064 320.269 79.1064 312.869 86.8264C303.882 96.2264 295.309 106.04 285.309 114.4C274.376 123.546 262.616 131.213 248.749 135.44C239.682 138.2 230.749 138.453 221.669 136.226C218.269 135.4 214.949 134.293 211.589 133.346C210.322 133 209.042 132.72 207.016 132.226C207.016 135.786 207.122 138.6 206.989 141.413C206.856 144.213 206.496 146.986 206.202 150.066C207.509 150.173 208.642 150.133 209.682 150.413C210.189 150.546 210.789 151.253 210.896 151.786C211.002 152.32 210.736 153.146 210.336 153.533C209.749 154.08 208.949 154.493 208.162 154.693C205.696 155.373 203.176 155.226 200.749 154.586C199.922 154.373 199.309 153.4 198.429 152.626C199.069 151.986 199.442 151.36 199.976 151.133C201.189 150.626 201.789 149.826 202.016 148.546C203.296 141.266 203.616 133.96 202.016 126.693C200.376 119.293 196.456 113.146 190.909 108.12C189.109 106.493 186.776 105.28 184.482 104.4C179.722 102.573 174.896 101.52 170.042 101.293L170.242 97.3464C175.536 97.5464 180.656 98.7731 185.682 100.426C190.069 101.866 193.722 104.44 196.682 107.96C200.349 112.333 203.469 117.053 205.176 122.56C205.829 124.68 207.002 125.866 209.216 126.44C213.882 127.64 218.456 129.24 223.136 130.426C227.482 131.546 231.936 132.146 236.509 131.746C242.189 122.373 242.122 112.746 238.629 102.853C238.002 101.066 236.962 99.5331 235.376 98.5331C233.136 97.1198 230.882 95.6131 228.442 94.6264C225.042 93.2798 221.536 92.1064 217.962 91.3864C215.402 90.8798 212.669 91.1198 210.029 91.2531C208.202 91.3598 206.416 91.8531 204.616 92.1864C195.749 93.8531 188.149 89.7331 185.269 81.1998C182.496 72.9864 180.522 64.5198 180.162 55.8131C179.936 50.3331 180.122 44.8398 180.122 38.9331Z" fill="black"/>
<path d="M181.189 263.013C177.989 262.986 174.682 264.066 170.976 262.32C171.816 261.546 172.176 260.986 172.682 260.8C173.762 260.4 174.896 260.066 176.042 259.92C180.989 259.306 185.949 258.72 190.922 258.226C192.229 258.093 193.602 258.173 194.896 258.413C196.989 258.813 198.136 260.053 198.136 262.253C198.122 264.56 197.976 266.933 197.442 269.173C195.896 275.64 194.069 282.026 191.629 288.266C188.056 297.413 184.842 306.693 181.522 315.933C181.202 316.826 181.176 317.826 180.989 318.853C183.176 319.586 185.176 319.146 187.109 318.906C192.722 318.24 198.322 317.4 203.936 316.653C204.909 316.52 205.922 316.373 206.882 316.506C208.189 316.693 209.176 318.053 209.242 319.386C209.296 320.746 208.522 321.626 207.389 322.066C206.322 322.48 205.149 322.706 203.989 322.853C194.576 324.026 185.149 325.173 175.736 326.32C175.242 326.373 174.736 326.466 174.242 326.466C171.136 326.44 169.176 324.533 169.402 321.413C169.549 319.44 170.002 317.44 170.656 315.573C172.976 308.986 175.269 302.373 177.922 295.906C181.282 287.746 185.002 279.733 188.522 271.653C189.696 268.946 191.216 266.346 191.256 262.973C187.789 262.533 184.482 263.026 181.189 263.013Z" fill="black"/>
<path d="M157.789 270.24C157.816 275.227 157.722 280.227 157.509 285.213C157.096 295.04 156.576 304.84 156.109 314.653C155.989 317.16 155.962 319.653 155.736 322.147C155.656 323.093 155.282 324.093 154.789 324.92C153.989 326.253 151.869 326.24 150.936 325.013C149.562 323.2 149.216 321.08 149.149 318.88C148.882 311.227 148.602 303.56 148.416 297.96C148.749 285.573 148.802 275.24 150.202 264.987C150.309 264.16 150.336 263.307 150.589 262.533C151.362 260.187 154.229 259.68 155.762 261.64C156.349 262.4 156.816 263.373 157.002 264.307C157.402 266.267 157.776 268.253 157.789 270.24Z" fill="black"/>
<path d="M153.322 249.306C155.149 249.426 156.829 251.24 156.709 252.973C156.576 254.893 154.882 256.506 153.109 256.4C151.162 256.293 149.776 254.76 149.789 252.72C149.802 250.813 151.469 249.2 153.322 249.306Z" fill="black"/>
<path d="M140.749 274.093C141.256 283.773 140.229 293.4 139.429 303.026C139.109 307.013 138.522 310.973 137.896 314.92C137.616 316.706 137.042 318.48 136.469 320.213C136.109 321.306 135.602 322.386 134.989 323.373C132.509 327.306 128.456 327.813 125.402 324.386C121.616 320.146 118.256 315.56 116.936 309.866C116.002 305.813 114.896 301.76 114.389 297.653C113.136 287.546 113.109 277.36 113.162 267.2C113.162 266.053 113.376 264.866 113.776 263.8C114.589 261.653 117.216 261.36 118.576 263.173C119.629 264.56 119.909 266.2 120.002 267.88C120.296 272.546 120.576 277.2 120.882 281.853C121.402 290.173 122.309 298.466 124.029 306.626C124.682 309.693 125.869 312.653 126.936 315.626C127.256 316.506 127.989 317.24 128.522 318.013C130.469 317.346 130.549 315.626 130.976 314.293C132.736 308.88 133.762 303.293 134.069 297.626C134.576 287.973 134.829 278.306 135.202 268.653C135.229 267.653 135.202 266.653 135.282 265.653C135.402 264.386 136.096 263.493 137.336 263.12C138.256 262.826 139.482 263.706 139.709 265.173C140.189 268.12 140.589 271.106 140.749 274.093Z" fill="black"/>
<path d="M104.096 287.36C104.509 278.68 104.229 270.026 103.029 261.413C102.536 257.933 101.802 254.52 99.9622 251.44C98.0689 248.28 96.6822 247.96 93.4422 249.92C90.9356 251.44 89.0422 253.573 87.7222 256.093C85.3222 260.653 82.7489 265.2 81.0422 270.026C77.2422 280.693 76.5356 291.853 77.2556 303.066C77.5889 308.4 78.4422 313.706 81.6556 318.24C82.4289 319.333 83.1489 320.48 84.1089 321.373C85.8289 322.973 87.6289 323 89.5222 321.626C92.1222 319.733 94.0822 317.266 95.7756 314.6C93.9489 308.28 92.2422 302.533 90.6422 296.76C90.2022 295.173 89.9089 293.493 89.8289 291.853C89.7356 289.653 91.2289 288.386 93.3756 288.853C94.4422 289.093 95.5622 289.68 96.3889 290.4C98.2022 291.96 99.1622 294.106 100.029 296.306C100.469 297.426 100.549 298.84 102.096 299.693C102.429 298.786 102.856 298.053 102.962 297.28C103.402 293.986 103.936 290.68 104.096 287.36ZM110.176 332.2C110.216 335.093 107.416 337.133 104.682 336.253C103.989 336.026 103.256 335.306 102.922 334.626C102.189 333.16 101.656 331.573 101.109 330C100.122 327.213 99.1889 324.4 98.0156 320.92C96.1489 322.653 94.9889 323.84 93.7222 324.893C90.7089 327.386 87.3756 329.093 83.3089 329.12C79.6156 329.16 76.3756 328.04 73.8156 325.44C72.2022 323.8 70.7089 321.933 69.5622 319.933C66.3622 314.386 64.4956 308.36 64.0156 301.96C63.2289 291.533 64.3356 281.36 67.9756 271.493C70.1756 265.546 72.7089 259.773 76.0956 254.386C78.3489 250.826 81.1756 247.853 84.7356 245.533C89.6556 242.333 94.8289 242.386 100.042 244.32C101.469 244.853 102.696 246.306 103.642 247.613C106.029 250.906 107.269 254.72 107.856 258.706C109.509 270.133 109.962 281.586 108.842 293.08C108.389 297.733 107.469 302.333 105.616 306.64C104.616 308.973 104.762 311.04 105.522 313.373C106.962 317.8 108.229 322.28 109.416 326.786C109.882 328.533 110.162 330.386 110.176 332.2Z" fill="black"/>
<path d="M95.6023 134.186C92.4423 138.893 89.4956 143.32 86.4956 147.706C83.1623 152.56 79.0423 156.666 74.3756 160.226C67.3489 165.56 59.5889 169.08 50.8023 170.44C43.9223 171.506 37.9623 169.8 32.5356 165.626C24.4689 159.426 20.4023 151.24 20.0956 141.106C19.8823 134.4 20.3889 127.786 22.1756 121.293C23.9756 114.746 27.0689 108.933 31.8689 104.066C37.2689 98.5997 42.8689 93.3731 49.1889 88.9731C60.9623 80.7331 73.9756 76.2131 88.4023 75.9331C94.2823 75.8264 100.029 76.4531 105.709 77.9597C114.109 80.1731 122.402 82.6397 129.949 87.0797C132.376 88.5064 134.722 90.0931 137.096 91.6397C139.056 92.9064 141.002 94.1997 142.936 95.4931C145.109 96.9464 147.469 97.2664 150.069 97.2264C156.562 97.1064 163.056 97.1464 169.549 97.3064C169.776 97.3064 170.016 97.3197 170.242 97.3464L170.042 101.293C165.416 101.066 160.736 101.586 156.042 102.906C154.309 103.386 152.656 104.28 151.136 105.24C150.242 105.8 149.682 106.866 149.029 107.64C150.216 109.373 151.336 108.013 152.376 108.093C153.242 108.16 154.042 108.253 154.496 109.093C155.069 110.16 154.629 111.04 153.842 111.76C150.176 115.04 144.362 115.533 140.416 112.8C139.842 112.4 139.309 111.373 139.416 110.746C139.509 110.16 140.402 109.506 141.082 109.266C141.962 108.96 142.989 109.04 144.016 108.946C144.402 106.493 143.336 104.893 141.856 103.466C134.336 96.1997 125.869 90.3864 115.896 87.0531C111.482 85.5731 106.989 84.2397 102.456 83.1864C90.9489 80.5197 79.6823 81.5997 68.5356 85.4397C58.3489 88.9331 49.9756 95.1064 42.1489 102.186C40.1623 103.973 38.3356 105.92 36.4156 107.773C32.8689 111.2 30.3089 115.253 28.7356 119.906C25.8023 128.586 25.0156 137.466 26.6689 146.52C28.0289 153.973 32.7489 158.933 38.8556 162.826C42.2556 164.986 46.0289 165.226 49.9356 164.76C57.7623 163.813 64.7356 160.76 70.8823 155.973C74.4023 153.213 77.7089 150.093 80.7356 146.786C84.3356 142.866 87.5356 138.586 90.8823 134.426C91.4023 133.8 91.7756 133.053 92.2556 132.32C91.4823 130.293 89.7089 129.68 88.0289 129.053C86.5889 128.52 85.2023 128.053 84.7756 126.173C85.9223 124.506 87.5756 123.906 89.4956 124.333C96.5623 125.893 101.362 130.106 103.816 136.92C104.029 137.493 104.056 138.333 103.789 138.853C103.429 139.52 102.762 140.186 102.082 140.44C101.642 140.613 100.762 140.2 100.376 139.786C99.5889 138.946 99.0423 137.88 98.2956 136.986C97.4823 136.013 96.5489 135.146 95.6023 134.186Z" fill="black"/>
<path d="M382.776 52.8798C388.189 63.7465 389.776 75.3998 388.576 87.4265C386.882 104.213 378.802 117.253 365.122 126.96C360.082 130.533 354.776 133.64 349.029 135.973C347.829 136.466 346.656 137.053 345.216 137.706C345.576 138.48 345.749 139.106 346.109 139.586C349.802 144.666 352.109 150.32 353.402 156.426C355.202 164.933 356.362 173.493 356.042 182.213C355.616 194.066 351.189 204.2 343.282 212.906C338.389 218.293 332.309 221.56 325.216 222.853C321.949 223.453 318.629 223.773 315.309 224C311.829 224.24 308.376 224.56 305.176 224.853C304.789 225.48 304.496 225.746 304.456 226.053C303.576 232.786 300.736 238.8 297.642 244.72C295.176 249.453 292.576 254.106 290.176 258.866C285.189 268.706 281.069 278.866 278.722 289.693C276.016 302.213 276.389 314.52 281.122 326.546C281.856 328.4 282.549 330.28 283.229 332.16C285.122 337.48 281.709 341.8 276.722 341.96C274.376 342.04 272.096 341.826 269.869 340.893C261.882 337.56 254.989 332.773 249.696 325.826C240.976 314.373 235.242 301.546 232.336 287.48C229.642 274.4 227.762 261.213 228.242 247.8C228.349 244.973 228.616 242.146 228.762 239.32C228.869 237.533 229.322 235.733 228.762 233.786C227.282 233.786 225.989 233.733 224.696 233.8C215.976 234.266 207.389 233.48 198.936 231.28C192.816 229.693 187.482 226.8 183.402 221.84C183.096 221.466 182.682 221.173 182.082 220.64C181.296 221.053 180.402 221.413 179.642 221.96C167.269 230.84 153.442 233.826 138.456 232.293C131.602 231.586 125.029 229.96 118.722 227.173C107.869 222.373 99.8556 214.813 95.4822 203.64C95.3089 203.173 95.0422 202.746 94.6556 201.96C92.1889 201.826 89.5622 201.693 86.9356 201.52C84.4422 201.36 81.9489 201.133 79.4556 200.973C69.2689 200.333 59.3089 198.493 49.7089 194.92C41.6822 191.933 34.3356 187.706 27.4689 182.64C22.7489 179.146 18.7223 174.933 15.3356 170.12C11.6956 164.92 8.64223 159.4 5.84223 153.693C-1.31777 139.08 -1.43776 124.146 3.76224 109.026C5.2689 104.64 7.16225 100.306 9.44225 96.2665C21.3089 75.1998 38.3222 59.9598 60.9222 50.9865C73.5756 45.9465 86.5356 42.5732 100.149 41.8265C106.296 41.4932 112.456 41.1598 118.616 41.1598C123.616 41.1465 128.589 41.7598 133.602 43.6532C134.056 42.8132 134.656 42.0265 134.922 41.1465C137.736 31.7731 143.936 25.3465 152.549 21.1332C158.749 18.1065 165.416 16.6131 172.269 15.9998C180.256 15.2665 188.256 15.4665 196.242 16.1065C199.042 16.3332 201.856 16.8665 204.589 17.5865C211.509 19.3998 218.376 21.3998 225.269 23.3331C226.709 23.7331 228.136 24.1465 229.802 24.6132C230.722 23.6398 231.669 22.7465 232.509 21.7598C236.162 17.4132 240.122 13.4132 244.602 9.87982C253.576 2.81315 263.602 -0.253512 274.962 1.06649C280.269 1.69315 285.509 2.65316 290.589 4.3065C295.069 5.75983 299.256 7.75982 302.189 11.8798C303.256 11.5998 304.202 11.3865 305.136 11.1065C311.349 9.25315 317.602 9.35982 323.909 10.6265C337.536 13.3465 349.869 19.0132 361.069 27.1198C370.429 33.8932 377.642 42.5998 382.776 52.8798ZM53.0422 143.253C52.8822 143.653 51.9489 143.786 51.3356 143.946C51.0422 144.013 50.6556 143.933 50.3623 143.786C46.8423 142.08 43.9089 139.653 41.8023 136.346C40.8023 134.8 40.5222 133.066 41.7089 130.973C43.3356 132.24 44.6822 133.28 45.9756 134.28C46.3889 133.826 46.6689 133.613 46.8156 133.333C51.5089 124.653 58.1489 117.813 66.2023 112.146C75.2689 105.773 85.3889 102.213 96.1489 100.306C100.922 99.4665 105.842 99.3331 110.589 100.44C120.122 102.653 126.229 108.933 129.722 117.84C131.376 122.066 131.802 126.573 131.682 131.12C131.656 132.36 131.416 133.706 132.536 135.053C133.802 134.173 134.842 133.413 135.922 132.693C144.602 126.933 153.976 123.52 164.576 123.986C171.202 124.266 176.949 126.56 181.722 131.106C188.709 137.773 191.509 146.16 190.576 155.6C189.322 168.16 184.762 179.493 176.576 189.24C175.509 190.52 174.416 191.773 173.376 193.08C166.922 201.146 159.002 207.386 149.949 212.28C148.189 213.226 146.442 214.213 144.829 215.386C141.976 217.466 138.909 219.08 135.589 220.28C133.722 220.946 131.976 221.986 130.189 222.866C129.536 223.186 129.136 223.64 129.562 224.64C138.562 227.066 147.762 227.52 157.042 225.56C168.589 223.12 178.069 217.466 185.109 207.853C189.149 202.346 193.416 197 197.522 191.546C198.269 190.573 199.296 189.653 199.429 188.053C197.989 188.133 196.869 188.306 195.762 188.226C194.629 188.16 194.029 186.88 194.669 186.026C195.162 185.373 195.656 184.6 196.336 184.213C202.082 181 208.002 180.573 214.082 183.253C214.362 183.386 214.722 183.6 214.842 183.853C215.109 184.52 215.576 185.32 215.482 185.906C215.482 185.96 215.456 186.013 215.442 186.053C215.216 186.64 214.242 187.266 213.562 187.306C212.616 187.373 211.629 186.92 210.656 186.68C209.589 186.426 208.522 186.16 207.176 185.84C203.469 198.093 195.736 207.413 187.109 216.266C189.789 221.32 194.309 223.48 199.202 225.186C201.069 223.813 202.136 222.106 203.189 220.426C205.242 217.2 207.256 213.933 209.216 210.64C213.709 203.093 216.042 194.813 217.696 186.32C217.869 185.48 218.029 184.64 218.176 183.786C218.496 182.013 218.442 180.093 218.189 178.306C217.936 176.52 217.416 174.706 216.642 173.08C215.082 169.786 212.562 169.026 209.189 170.653C208.149 171.146 207.229 171.906 206.202 172.453C204.509 173.36 203.842 173.053 202.429 170.866C202.522 170.546 202.562 170.213 202.696 169.92C204.389 166.133 207.242 163.386 210.562 161.053C213.976 158.68 216.616 155.613 218.949 152C217.802 151.426 216.856 151.093 216.069 150.546C214.629 149.546 214.856 147.72 216.482 146.96C217.069 146.68 217.736 146.4 218.376 146.386C222.389 146.293 227.229 149.413 228.749 153.106C229.056 153.84 229.162 154.72 229.122 155.52C229.069 156.586 228.442 157.44 227.416 157.773C226.402 158.08 225.376 157.893 224.709 156.986C224.056 156.093 223.509 155.106 222.802 153.96C219.576 157.493 216.549 160.786 213.549 164.08C213.429 164.2 213.336 164.373 213.322 164.52C213.309 164.666 213.416 164.813 213.562 165.213C219.802 166.933 221.989 172.04 222.909 177.853C223.322 180.453 223.322 183.24 222.842 185.813C220.962 195.84 218.442 205.666 213.002 214.48C210.989 217.746 209.042 221.053 207.136 224.373C206.749 225.026 206.629 225.826 206.296 226.84C212.402 227.413 218.096 228.8 223.989 227.506C223.989 226.32 224.149 225.306 223.962 224.373C222.696 217.866 223.162 211.4 224.576 205.026C225.442 201.133 226.776 197.333 227.909 193.506C228.962 189.96 230.482 186.64 233.002 183.866C233.802 183 234.202 182.026 234.442 180.8C236.016 172.6 239.629 165.4 245.442 159.333C253.269 151.16 262.376 144.72 272.722 140.28C282.816 135.946 293.109 132.04 303.469 128.386C312.909 125.053 322.162 121.306 331.189 117.026C342.296 111.733 351.976 104.48 359.789 94.8265C363.469 90.2798 365.549 85.2398 365.722 78.8932C364.389 79.5732 363.336 79.9732 362.442 80.5998C361.496 81.2798 360.736 82.1865 359.856 82.9598C358.829 83.8531 357.656 84.3065 355.896 84.0532C356.242 82.8932 356.269 81.8398 356.789 81.1332C360.656 75.7732 365.856 72.8932 372.562 73.1598C373.856 73.2132 375.202 73.6265 376.389 74.1732C377.229 74.5598 377.976 75.3598 378.509 76.1598C379.149 77.0932 378.936 78.0532 377.616 78.8398C374.856 77.8798 371.842 76.9865 368.469 78.2665C368.309 79.5865 368.056 80.8665 368.002 82.1598C367.762 88.5598 365.402 94.0265 361.456 99.0798C353.802 108.893 344.256 116.32 333.122 121.56C324.549 125.6 315.669 129.013 306.842 132.506C296.789 136.493 286.549 140.053 276.562 144.186C266.296 148.44 257.229 154.626 249.482 162.653C246.922 165.293 244.602 168.146 243.096 171.533C242.802 172.2 242.122 172.933 243.002 173.933C243.549 173.853 244.216 173.853 244.789 173.626C253.562 170.093 262.829 168.946 272.136 168.16C273.802 168.013 275.456 167.853 277.109 167.666C285.562 166.733 293.909 165.24 302.136 163.053C304.696 162.36 307.256 161.48 309.616 160.306C311.349 159.44 312.909 158.08 314.296 156.68C315.002 155.96 315.149 154.68 315.696 153.32C302.002 151.093 290.002 154.426 278.722 161.133C279.696 165.36 279.696 165.36 277.029 166.973C273.416 164.04 271.829 160.24 272.336 155.6C272.482 154.293 272.709 152.773 274.162 152.293C275.922 151.72 276.296 153.386 277.002 154.453C277.176 154.706 277.496 154.866 277.909 155.2C279.789 154.386 281.789 153.586 283.736 152.64C291.842 148.706 300.456 147.066 309.416 147.293C312.549 147.386 315.722 147.853 318.789 148.546C321.696 149.213 322.536 151.093 321.616 153.853C319.909 158.973 316.909 163.013 311.776 165.173C309.789 166.013 307.829 167.04 305.736 167.52C298.762 169.12 291.776 170.72 284.722 171.906C281.362 172.466 277.962 172.84 274.562 173.173C271.989 173.426 269.416 173.666 266.856 173.946C259.709 174.72 252.696 176.053 245.989 178.773C244.922 179.2 243.696 179.493 242.829 180.213C238.682 183.626 234.816 187.36 233.309 192.746C231.909 197.706 230.696 202.733 229.549 207.76C228.562 212.04 228.856 216.4 229.296 220.706C229.496 222.746 229.629 225.04 231.709 226.773C232.536 225.866 233.376 225.106 234.016 224.2C237.029 219.946 239.002 215.16 240.896 210.346C243.096 204.76 245.829 199.533 249.402 194.6C253.282 189.24 258.016 185.413 264.109 183.12C267.376 181.88 270.642 180.68 273.962 179.453C274.242 178.2 274.522 176.973 274.816 175.666C275.562 175.746 276.069 175.693 276.496 175.866C277.109 176.093 277.669 176.466 278.242 176.813C281.442 178.733 282.242 184.28 280.976 187.173C280.696 187.8 279.816 188.333 279.096 188.56C278.202 188.84 277.496 188.226 277.176 187.373C276.802 186.32 276.496 185.24 276.096 183.96C268.642 185.733 261.749 187.893 256.776 193.906C255.936 194.933 254.962 195.866 253.976 196.76C251.576 198.946 249.962 201.64 248.896 204.68C247.589 208.453 246.229 212.213 245.002 216.013C243.922 219.373 242.562 222.573 240.296 225.333C236.429 230.053 234.856 235.586 234.789 241.56C234.722 246.546 234.802 251.56 235.149 256.546C235.762 265.706 236.749 274.813 239.829 283.546C240.069 284.253 239.922 285.28 241.856 285.453C242.256 284.92 242.949 284 243.629 283.08C246.856 278.613 250.202 274.253 253.242 269.666C255.242 266.626 256.949 263.36 258.509 260.053C262.496 251.6 265.376 242.72 268.189 233.813C269.336 230.173 270.376 226.48 271.482 222.813C272.549 219.293 272.362 215.866 270.602 212.64C268.776 209.306 267.296 205.586 262.922 204.68C262.616 204.626 262.349 204.36 262.082 204.173C261.162 203.52 260.922 202.546 261.002 201.533C261.096 200.413 261.776 199.706 262.856 199.453C263.829 199.226 264.856 199.213 265.802 198.92C277.296 195.453 289.042 193.08 300.842 190.973C307.416 189.813 313.922 188.466 320.136 185.933C324.202 184.28 327.909 182.133 330.949 178.92C334.069 175.64 335.936 171.733 335.882 167.24C335.856 163.946 335.096 160.666 334.602 157.4C334.562 157.16 334.136 156.973 333.682 156.613C332.776 157.493 331.896 158.453 330.909 159.293C330.096 160.013 329.096 160.093 328.122 159.56C327.402 159.173 327.216 157.826 327.789 156.853C330.016 153.04 333.216 150.586 337.722 150.146C338.496 150.066 339.376 150.28 340.122 150.56C341.269 151 341.509 152.653 340.536 153.466C339.816 154.066 338.936 154.453 338.269 154.853C338.656 158.826 338.962 162.466 339.376 166.093C340.109 172.48 338.096 177.92 333.829 182.586C330.976 185.706 327.522 188.026 323.696 189.773C318.522 192.12 313.162 193.84 307.576 194.973C296.469 197.213 285.402 199.586 274.322 201.933C273.229 202.16 271.976 202.173 271.536 203.533C271.576 203.72 271.589 203.906 271.669 204.04C272.096 204.76 272.496 205.493 272.989 206.16C277.442 212.266 278.362 218.906 276.162 226.08C272.456 238.186 268.829 250.306 263.776 261.96C262.056 265.946 260.109 269.813 257.536 273.32C253.189 279.226 248.762 285.066 244.389 290.933C243.696 291.866 243.056 292.826 242.376 293.813C242.629 294.866 242.802 295.853 243.096 296.786C245.989 305.72 250.056 314.12 255.122 321.986C258.722 327.573 263.896 331.533 269.976 334.2C272.069 335.12 274.256 335.933 276.896 334.893C276.136 332.693 275.496 330.653 274.722 328.666C270.002 316.493 269.429 304.026 271.789 291.293C273.349 282.893 275.909 274.786 279.469 267.053C283.002 259.333 287.069 251.866 290.816 244.24C292.882 240.066 294.976 235.88 296.656 231.546C297.602 229.106 297.816 226.373 298.202 223.76C298.309 223 298.136 221.96 297.669 221.4C295.389 218.6 292.976 215.906 290.416 212.973C289.669 214.08 289.069 215.053 288.389 215.96C287.389 217.266 285.896 217.64 284.936 216.906C283.802 216.04 284.096 214.853 284.269 213.706C284.296 213.546 284.362 213.386 284.429 213.226C286.149 208.893 289.482 206.306 293.776 204.866C295.282 204.36 296.669 204.666 297.682 205.546C298.136 208.04 295.416 208.093 295.136 209.973C296.309 212.28 298.322 214.04 300.069 216.04C301.509 217.693 303.242 218.28 305.376 218.24C311.216 218.106 317.056 218.013 322.816 216.986C328.149 216.04 333.096 214.16 337.069 210.293C343.989 203.546 348.362 195.493 349.496 185.84C350.829 174.373 348.976 163.226 345.722 152.293C344.842 149.32 342.962 146.64 341.442 143.866C340.589 142.32 339.229 141.573 337.349 141.52C334.856 141.453 332.362 141.106 329.882 140.8C328.749 140.653 327.576 140.44 326.509 140.04C324.922 139.44 324.616 137.293 326.016 136.44C327.122 135.786 328.416 135.28 329.682 135.08C335.816 134.146 341.709 132.466 347.402 130.013C355.589 126.493 363.016 121.8 369.402 115.533C375.136 109.92 379.202 103.28 381.136 95.5198C387.242 71.1331 380.176 50.8532 361.642 34.2798C361.069 33.7732 360.296 33.4798 359.416 32.9865C359.349 33.8132 359.242 34.2932 359.282 34.7598C359.429 36.3198 359.589 37.8665 359.736 39.4132L356.776 39.7065C356.522 36.9198 355.909 34.1198 355.002 31.3065C354.376 29.3332 353.122 27.9065 351.282 26.8265C342.456 21.6665 333.202 17.5465 323.256 15.0932C319.856 14.2532 316.389 13.8265 312.856 13.9598C307.736 14.1465 303.469 16.2132 299.989 19.7998C297.216 22.6798 294.682 25.7865 292.162 28.8798C287.696 34.3332 284.309 40.4532 281.002 46.6398C280.149 48.2398 279.162 49.7998 278.042 51.2265C277.389 52.0665 276.282 52.1465 275.296 51.6265C274.242 51.0798 273.989 50.0798 274.402 49.0798C275.242 47.0798 276.056 45.0665 277.149 43.1998C282.136 34.7198 287.509 26.4932 293.869 18.9465C295.149 17.4265 296.469 15.9331 297.669 14.5198C297.309 11.7198 295.269 10.8265 293.216 10.0932C286.589 7.71983 279.722 6.43983 272.709 5.93317C264.402 5.3465 256.936 7.74649 250.149 12.5065C244.202 16.6932 239.602 22.1598 235.256 27.8798C234.456 28.9332 233.869 30.1732 233.336 31.3865C231.922 34.5865 230.576 37.8132 229.216 41.0265C225.669 49.3865 224.829 58.0798 225.976 67.0132C226.042 67.6132 226.322 68.1998 226.562 68.9865C227.402 68.8265 228.042 68.7598 228.642 68.5598C229.589 68.2398 230.482 67.7731 231.429 67.4798C232.642 67.1065 234.149 67.8265 234.802 68.9865C235.349 69.9198 234.962 71.1998 233.736 71.9598C232.176 72.9198 230.576 73.8131 228.936 74.6265C223.109 77.5465 217.056 77.4798 210.909 75.8798C209.456 75.5065 208.629 74.2931 208.696 72.9598C208.762 71.3865 209.829 70.2265 211.562 70.0798C213.389 69.9198 215.229 69.9998 217.056 69.8665C217.989 69.7865 218.909 69.4798 219.816 69.2798C219.816 67.0132 219.896 65.0265 219.802 63.0532C219.309 52.0532 220.669 41.4265 225.776 31.4932C226.042 30.9732 225.976 30.2798 226.082 29.5865C225.269 29.2532 224.682 28.9465 224.056 28.7732C218.149 27.0532 212.242 25.2665 206.296 23.6665C193.696 20.2798 180.922 20.2665 168.109 22.0665C163.149 22.7598 158.376 24.2932 153.882 26.5998C148.842 29.1998 144.936 32.9598 142.136 37.8531C140.042 41.5198 140.416 44.7465 143.149 47.9998C143.576 48.5065 144.042 48.9865 144.536 49.4398C147.456 52.1998 149.816 55.3998 152.216 58.6132C156.749 64.6665 160.562 71.0665 163.069 78.2132C163.176 78.4932 163.496 78.7065 163.896 79.1465C164.856 78.8665 165.936 78.5065 167.016 78.2265C168.296 77.9065 169.616 77.4931 171.002 78.8131C170.736 79.5731 170.669 80.7065 170.069 81.2931C168.762 82.5465 167.269 83.6531 165.709 84.5865C161.522 87.1065 156.856 87.2398 152.162 86.9465C151.589 86.9065 150.869 85.9865 150.616 85.3198C150.496 84.9732 151.096 84.0665 151.576 83.7998C152.829 83.1198 154.202 82.6665 155.709 82.0532C155.016 77.8265 153.482 74.1332 152.096 70.4265C151.416 68.5865 150.322 66.7998 149.029 65.3198C145.549 61.2932 141.869 57.4265 138.216 53.5465C137.549 52.8265 136.629 52.3465 135.829 51.7598C131.362 48.4665 126.136 47.1998 120.816 46.9198C100.416 45.8132 80.6956 48.6531 61.7223 56.7731C46.0023 63.4931 32.9489 73.3998 22.4422 86.7731C16.3222 94.5731 11.5356 103.12 8.56224 112.613C6.09558 120.506 4.84224 128.64 6.4289 136.786C9.2289 151.226 16.2822 163.56 26.3889 174.186C27.6556 175.506 29.0822 176.68 30.5489 177.773C38.5089 183.666 47.1089 188.293 56.6289 191.213C66.4422 194.24 76.5489 195.053 86.6956 195.733C87.3622 195.786 88.0556 195.786 88.6956 195.653C95.8689 194.12 103.042 192.533 109.442 188.746C118.856 183.2 126.776 175.8 134.562 168.253C135.949 166.893 137.242 165.346 137.976 162.786C137.269 162.266 136.402 161.746 135.656 161.08C135.056 160.533 134.402 159.893 134.109 159.16C133.842 158.466 133.736 157.426 134.069 156.853C134.416 156.293 135.402 155.893 136.122 155.853C137.922 155.76 139.349 156.746 140.349 158.133C143.776 162.853 147.336 167.493 148.976 173.226C149.216 174.026 149.522 174.84 149.509 175.653C149.509 176.68 149.069 177.6 147.949 177.933C146.842 178.266 145.936 177.933 145.402 176.946C144.922 176.066 144.656 175.093 144.229 174.186C143.469 172.56 142.656 170.96 141.696 169.013C140.576 170.106 139.722 170.866 138.962 171.706C137.376 173.413 135.989 175.346 134.242 176.866C128.709 181.68 123.149 186.466 117.416 191.013C113.416 194.186 110.336 198.066 107.509 202.186C106.589 203.546 106.056 205.173 105.376 206.693C104.776 208.053 105.109 209.266 106.002 210.413C108.482 213.6 111.509 216.16 114.856 218.426C117.096 219.946 119.149 220.413 121.816 219.226C128.936 216.026 136.442 213.68 142.842 208.986C144.176 208.013 145.736 207.346 147.162 206.48C149.589 205.026 152.042 203.613 154.389 202.026C160.669 197.8 165.722 192.32 170.656 186.613C177.376 178.84 181.642 169.986 183.816 160.04C184.736 155.773 185.122 151.48 184.162 147.146C181.642 135.8 172.322 129.453 163.229 129.88C162.229 129.933 161.216 129.813 160.229 129.933C148.549 131.4 138.376 135.333 131.842 146.066C125.322 156.746 116.576 165.36 106.082 172.173C104.962 172.906 103.802 173.586 102.749 174.4C99.4156 176.986 95.6022 178.626 91.6289 179.946C90.7489 180.24 89.9356 180.76 89.1089 181.16C89.7222 182.453 90.3889 183.44 90.6822 184.533C91.0822 185.973 89.7889 187.32 88.3889 186.933C87.3089 186.626 86.1089 186.16 85.3489 185.4C81.0556 181.04 78.9622 175.746 79.1089 169.6C79.1222 168.96 79.3089 168.293 79.5222 167.666C79.8556 166.706 81.1356 165.84 81.8289 166.226C82.4822 166.6 83.1623 167.24 83.4289 167.92C83.7356 168.653 83.4956 169.56 83.6156 170.386C83.7489 171.32 84.0023 172.24 84.2423 173.293C85.1489 173.106 85.8289 173.066 86.4289 172.826C98.2156 168.12 108.656 161.333 117.096 151.84C123.136 145.053 126.536 137.026 125.909 127.613C125.002 114 115.509 103.346 99.3222 105.2C96.0289 105.573 92.7222 106.2 89.5089 107C74.2556 110.84 61.7889 118.973 52.3356 131.6C50.9489 133.466 49.6156 135.346 49.1489 137.88C49.8422 138.413 50.4689 138.92 51.1089 139.413C51.7489 139.933 52.6023 140.333 52.9489 140.986C53.2823 141.6 53.3089 142.6 53.0422 143.253Z" fill="black"/>
<path d="M67.0308 165.219C67.5748 166.138 68.7788 166.739 68.4175 168.094C67.9281 168.756 67.5828 169.418 68.4135 170.082C70.5335 169.675 72.2748 168.466 74.0468 167.359C78.7041 164.446 83.4295 161.623 87.9295 158.48C93.1068 154.864 97.7135 150.55 101.951 145.856C102.703 145.023 103.471 144.2 104.268 143.412C104.704 142.982 105.183 143.272 105.585 143.526C106.124 143.864 106.8 144.219 106.584 144.994C106.372 145.755 106.059 146.52 105.639 147.188C104.336 149.258 102.583 150.928 100.803 152.588C97.7348 155.448 94.2522 157.864 91.5988 161.17L91.2721 161.291C90.6321 161.432 90.1548 161.802 89.7961 162.338L89.8775 162.268C88.1468 162.351 86.9455 163.55 85.6148 164.396C80.2095 167.835 75.0481 171.67 68.8881 174.224C69.9428 174.939 70.7601 175.438 71.5108 176.023C71.9588 176.371 71.8215 176.918 71.5735 177.323C71.3375 177.707 70.9468 178.304 70.6468 178.291C68.0828 178.18 65.5121 178.044 62.9681 177.724C61.4575 177.534 60.4601 176.37 59.5188 175.234C58.9201 174.51 58.8295 173.767 59.3895 173.051C61.1775 170.77 63.0068 168.523 64.8215 166.263C65.0135 165.682 65.4455 165.332 65.9695 165.071C66.3481 164.938 66.7028 164.988 67.0308 165.219Z" fill="#FBBD0D"/>
<path d="M269.749 140.047C269.42 139.695 269.128 139.296 268.755 139.001C267.568 138.061 268.023 137.076 268.613 136.068C268.205 135.401 267.72 135.739 267.243 135.96C260.605 138.937 254.607 143.051 248.296 146.611C247.595 147.007 246.896 147.411 246.213 147.837C245.061 148.559 244.079 148.196 243.129 147.42C242.415 146.837 242.308 145.897 242.975 145.421C243.624 144.957 244.307 144.536 244.996 144.132C250.408 140.961 255.824 137.799 261.209 134.652C261.525 133.217 260.076 133.241 259.536 132.536C258.875 131.669 259.453 131.056 259.675 130.341C259.788 130.177 259.901 130.012 260.012 129.845C260.672 129.365 261.432 129.093 262.18 128.789C262.561 128.631 262.955 128.517 263.359 128.432C264.6 128.095 265.819 128.541 267.052 128.531C269.46 128.435 271.797 127.933 274.12 127.332C274.888 127.133 275.676 126.895 276.456 126.892C278.157 126.887 279.301 128.701 278.655 130.273C277.977 131.916 276.971 133.34 275.757 134.639C274.676 135.795 273.356 136.779 272.857 138.399C271.98 139.259 270.949 139.811 269.749 140.047Z" fill="#FBBD0D"/>
<path d="M263.136 289.585C263.136 287.813 263.154 287.019 263.134 286.227C262.94 278.419 265.331 271.267 268.638 264.337C271.432 258.479 274.964 253.063 278.586 247.705C283.494 240.439 285.714 232.207 287.302 223.75C287.536 222.503 287.383 221.177 287.34 219.89C287.319 219.251 287.094 218.622 287.044 217.982C286.974 217.058 287.534 216.45 288.291 216.09C288.983 215.761 290.279 216.523 290.562 217.431C291.139 219.293 291.568 221.197 291.275 223.159C290.966 225.235 290.739 227.347 290.166 229.354C289.011 233.39 287.695 237.382 286.352 241.361C285.47 243.979 284.002 246.314 282.512 248.633C279.107 253.934 275.448 259.075 272.68 264.774C270.696 268.862 269.02 273.041 267.87 277.438C267.415 279.177 267.236 280.911 267.286 282.618C268.228 283.057 268.523 282.367 268.943 281.973C269.548 281.406 270.167 280.87 271.06 281.321C272.022 281.807 272.534 282.591 272.267 283.686C271.96 284.939 271.611 286.187 271.206 287.413C270.088 290.782 268.964 294.15 267.776 297.494C267.226 299.042 266.076 299.33 264.747 298.315C264.112 297.83 263.411 297.315 263.015 296.651C261.11 293.45 258.963 290.426 256.64 287.518C256.208 286.978 256.21 286.31 256.786 285.791C257.315 285.315 258.003 285.151 258.546 285.586C259.89 286.661 261.15 287.839 263.136 289.585Z" fill="#FBBD0C"/>
<path d="M246.481 74.6158C247.298 74.3505 247.749 74.2265 248.183 74.0598C249.026 73.7358 249.749 73.8905 250.37 74.5451C251.07 75.2811 250.847 76.0625 250.342 76.7265C248.557 79.0678 247.451 81.7398 246.353 84.4358C245.783 85.8358 244.299 86.0998 243.177 85.1731C242.927 84.9678 242.658 84.7625 242.481 84.5011C240.939 82.2238 239.177 80.1411 237.187 78.2411C236.679 77.7558 236.59 77.1731 237.099 76.5611C237.558 76.0105 238.138 75.7851 238.802 75.8905C239.921 76.0678 240.566 77.3398 242.127 77.2331C242.439 74.4305 242.805 71.5838 243.067 68.7265C243.987 58.7051 245.886 48.9118 249.794 39.5825C253.419 30.9265 258.445 23.3651 266.399 18.0251C271.683 14.4785 277.531 13.0198 283.807 12.9745C285.294 12.9638 286.734 13.1891 287.83 14.2958C288.123 14.5918 288.375 15.1758 288.283 15.5331C288.182 15.9291 287.702 16.4425 287.319 16.5078C286.374 16.6691 285.39 16.6438 284.425 16.6211C274.415 16.3958 266.705 20.9011 260.589 28.4265C257.314 32.4558 254.867 37.0278 252.966 41.8705C249.575 50.5078 247.787 59.5051 246.959 68.7158C246.801 70.4745 246.673 72.2358 246.481 74.6158Z" fill="#FBBD0D"/>
<path d="M346.416 81.7468C347.481 81.0108 348.245 80.0321 348.74 78.8414C349.811 77.6068 351.101 76.5388 351.712 74.9521C354.013 72.4654 356.283 69.9441 358.628 67.4961C362.024 63.9508 365.561 60.6094 370.704 60.6654C371.705 59.1708 371.011 57.8521 371.18 56.5988C371.3 55.7054 371.847 55.1094 372.579 54.7561C373.207 54.4508 374.561 55.2948 374.895 56.1374C375.131 56.7334 375.273 57.3681 375.427 57.9934C375.963 60.1868 376.521 62.3761 377 64.5814C377.387 66.3588 376.801 67.4734 375.231 68.0321C373.408 68.6788 371.572 69.2894 369.721 69.8508C369.285 69.9841 368.699 70.0108 368.309 69.8214C367.756 69.5521 367.177 69.1241 366.875 68.6068C366.523 68.0041 366.871 67.3308 367.415 66.9228C367.921 66.5428 368.523 66.2881 369.083 65.9774C369.392 65.6321 369.808 65.3628 369.893 64.8548C369.032 64.9148 368.092 64.4414 367.344 65.2401C364.792 66.4121 362.879 68.3934 361.045 70.4134C356.611 75.2988 352.192 80.2134 348.477 85.6868C343.763 92.6361 337.999 98.7308 332.713 105.215C332.109 105.956 331.364 106.589 330.64 107.224C330.112 107.685 329.495 107.685 328.851 107.385C327.495 106.755 327.301 105.543 328.031 104.708C331.103 101.195 334.099 97.6161 337.153 94.0881C340.528 90.1894 343.655 86.1054 346.416 81.7468Z" fill="#FBBD0C"/>
<path d="M314.908 167.99C313.784 168.149 312.645 168.321 311.574 167.797C310.832 167.433 310.196 166.902 310.281 165.958C310.345 165.257 310.854 164.75 311.46 164.566C313.002 164.1 314.566 163.662 316.152 163.385C318.856 162.912 321.58 162.56 324.3 162.184C324.932 162.096 325.585 162.044 326.218 162.096C327.388 162.193 328.257 163.409 327.845 164.49C326.637 167.657 325.37 170.802 324.072 173.934C323.774 174.649 323.378 175.422 322.32 175.21C321.122 174.972 320.448 174.193 320.426 172.896C320.421 172.588 320.653 172.278 320.66 171.966C320.678 171.188 320.069 170.796 319.438 171.185C318.34 171.865 317.278 172.606 316.184 173.293C310.492 176.862 304.112 178.668 297.732 180.468C296.693 180.761 295.84 180.293 295.066 179.657C294.266 179.001 294.398 177.597 295.329 177.257C296.077 176.984 296.882 176.869 297.65 176.644C304.014 174.78 310.346 172.837 315.926 169.078C316.261 168.085 316.05 167.602 314.908 167.99Z" fill="#FBBD0D"/>
<path d="M128.422 67.3733C121.551 66.132 114.61 65.8027 107.659 66.1C91.771 66.7773 76.635 70.3733 62.8683 78.5853C48.9923 86.8627 37.7737 97.7893 30.327 112.315C29.979 112.996 29.7643 113.855 28.6123 113.915C28.003 112.111 28.499 110.416 29.3337 108.841C30.6923 106.275 31.9924 103.647 33.6404 101.269C46.9897 81.9987 64.8843 69.308 87.915 64.232C99.019 61.784 110.23 60.5987 121.599 62.0827C122.719 62.2293 123.854 62.2667 124.984 62.324C125.299 62.3413 125.62 62.252 125.939 62.2107C126.418 61.1973 125.528 60.8347 125.024 60.3027C124.36 59.6027 123.562 59 123.035 58.212C122.594 57.552 122.507 56.6293 123.028 55.9307C123.555 55.2253 124.412 55.0813 125.223 55.3467C125.975 55.5933 126.771 55.8853 127.379 56.3693C131.682 59.8 135.699 63.54 139.307 67.7093C139.852 68.3387 140.231 69.032 140.295 69.868C140.363 70.748 140.074 71.6747 139.215 71.7893C135.384 72.3013 131.536 72.7 127.686 73.0467C126.864 73.12 126.135 72.6187 125.916 71.704C125.76 71.052 125.819 70.4067 126.328 69.912C126.67 69.58 127.067 69.3013 127.45 69.0133C127.835 68.7227 128.234 68.448 128.626 68.168C129.028 68.052 129.106 67.8213 128.848 67.484C128.784 67.4013 128.631 67.3733 128.422 67.3733Z" fill="#FBBC0A"/>
<path d="M169.293 161.763C167.674 161.83 166.193 162.676 165.118 161.25C164.714 160.714 164.342 160.072 164.898 159.523C167.418 157.027 169.977 154.57 172.557 152.136C173.087 151.636 173.741 151.823 174.337 152.183C175.355 152.796 176.03 153.652 176.327 154.814C177.125 157.938 177.961 161.051 178.717 164.184C178.877 164.844 178.423 165.407 177.909 165.835C177.286 166.352 176.694 166.02 176.142 165.703C174.954 165.022 174.734 163.575 173.689 162.514C172.453 164.078 171.953 165.918 171.361 167.674C168.554 175.986 163.935 183.058 157.239 188.762C155.886 189.914 154.631 191.182 153.355 192.422C151.823 193.908 150.031 194.995 148.079 195.807C147.345 196.111 146.537 196.299 145.746 196.394C144.547 196.536 143.218 195.834 142.859 194.998C142.541 194.252 143.422 193.059 144.881 192.799C147.579 192.318 149.606 190.787 151.525 189.022C153.429 187.27 155.339 185.522 157.178 183.703C163.303 177.643 166.875 170.184 169.293 161.763Z" fill="#FBBD0C"/>
<path d="M218.111 109.736C214.798 105.32 211.199 101.207 206.41 98.2906C201.243 95.1452 195.726 93.0346 189.674 92.4066C188.076 92.2399 186.474 92.0292 184.91 91.6772C183.73 91.4106 182.954 90.3519 183.256 89.6839C183.624 88.8719 184.339 88.5372 185.212 88.5359C185.696 88.5346 186.184 88.5146 186.664 88.5679C198.656 89.8932 209 94.5452 217.114 103.684C217.971 104.649 218.77 105.669 219.636 106.627C220.482 107.56 221.01 108.811 222.271 109.357C223.287 108.879 222.896 107.993 222.852 107.301C222.771 106.021 222.46 104.753 222.399 103.475C222.368 102.829 222.851 102.297 223.462 101.976C224.128 101.623 224.691 101.855 225.226 102.276C225.88 102.791 226.378 103.416 226.478 104.263C226.894 107.789 227.304 111.316 227.682 114.845C227.731 115.311 227.632 115.815 227.502 116.273C227.254 117.147 226.656 117.599 225.715 117.503C225.556 117.485 225.387 117.471 225.244 117.408C222.435 116.176 219.596 115.064 216.57 114.431C215.658 114.241 214.826 113.468 215.046 112.296C215.219 111.376 215.998 111.084 216.838 110.964C218.04 111.363 218.29 110.771 218.111 109.736Z" fill="#FBBD0D"/>
<path d="M55.4635 344.862C54.6049 344.839 53.4649 343.279 53.9422 342.017C54.3355 340.973 54.8769 339.894 55.6302 339.091C58.8689 335.642 62.1942 332.273 65.5222 328.909C66.6982 327.721 68.0462 326.825 69.8689 327.162C70.6209 327.301 71.0569 327.714 70.8675 328.475C70.6729 329.259 70.4515 330.081 70.0355 330.759C67.2089 335.378 63.8475 339.569 59.7675 343.15C58.6582 344.125 57.4462 344.966 55.4635 344.862Z" fill="#FBBE10"/>
<path d="M39.1257 286.854C38.2817 286.654 37.3297 286.49 36.4204 286.195C35.4657 285.884 34.6044 285.28 34.4897 284.235C34.3444 282.899 35.5844 282.771 36.4457 282.571C39.7484 281.81 43.0764 281.151 46.3964 280.462C47.4017 280.252 48.3111 280.49 49.1404 281.09C49.8617 281.612 50.1404 282.322 50.0631 283.183C49.9871 284.039 49.6524 284.7 48.7697 285.022C45.6911 286.143 42.3871 285.995 39.1257 286.854Z" fill="#FBC017"/>
<path d="M117.652 350.147C117.812 348.116 117.3 345.95 118.482 343.978C119.075 342.984 120.215 342.863 120.819 343.859C123.032 347.507 123.418 351.526 122.995 355.647C122.864 356.908 121.746 357.614 120.534 357.606C119.404 357.599 118.788 356.942 118.319 355.995C117.395 354.136 117.75 352.151 117.652 350.147Z" fill="#FBC01A"/>
<path d="M218.04 327.985C220.306 328.249 222.473 327.894 224.42 328.922C225.274 329.373 226.102 329.916 225.98 331.112C225.853 332.336 225.136 333.154 223.894 333.448C223.737 333.485 223.578 333.578 223.426 333.566C219.392 333.26 215.386 332.802 211.836 330.628C211.522 330.436 211.368 329.84 211.328 329.413C211.31 329.232 211.745 328.926 212.028 328.813C212.621 328.574 213.24 328.324 213.866 328.258C215.313 328.106 216.772 328.062 218.04 327.985Z" fill="#FBBF15"/>
<path d="M166.46 341.179C166.565 340.701 166.659 340.229 166.776 339.762C166.904 339.246 168.013 338.947 168.395 339.358C168.945 339.949 169.563 340.527 169.933 341.226C171.303 343.805 172.588 346.427 173.889 349.041C174.396 350.058 174.108 350.91 173.268 351.626C172.404 352.362 171.503 352.33 170.58 351.769C169.728 351.25 169.049 350.554 168.669 349.625C167.561 346.911 166.676 344.137 166.46 341.179Z" fill="#FBC01A"/>
<path d="M62.812 231.044C63.036 231.098 63.7147 231.124 64.2613 231.408C67.1693 232.916 69.468 235.206 71.7547 237.488C72.076 237.808 72.2547 238.319 72.3813 238.775C72.6173 239.626 72.3413 240.344 71.656 240.92C71.0867 241.396 70.4853 241.368 69.8693 241.09C69.2827 240.824 68.672 240.58 68.148 240.216C65.452 238.348 63.2533 236.014 61.72 233.096C61.332 232.358 61.7827 231.135 62.812 231.044Z" fill="#FBC018"/>
<path d="M118.297 237.399C118.324 237.131 118.367 235.987 118.588 234.879C118.667 234.486 119.127 233.997 119.509 233.885C119.869 233.779 120.529 233.983 120.759 234.281C121.448 235.175 122.091 236.137 122.572 237.157C123.719 239.595 123.84 242.201 123.536 244.834C123.44 245.661 123.144 246.501 122.225 246.699C121.125 246.937 120.38 246.286 119.84 245.391C118.512 243.194 118.516 240.715 118.297 237.399Z" fill="#FBBF13"/>
<path d="M189.091 236.184C189.263 238.163 188.338 239.564 187.674 241.025C186.998 242.511 186.1 243.877 184.896 245.005C184.154 245.7 183.306 246.153 182.259 245.68C181.303 245.247 180.791 243.975 181.29 242.724C182.519 239.644 184.376 237.028 187.347 235.368C188.086 234.955 189.083 235.599 189.091 236.184Z" fill="#FBC018"/>
<path d="M205.125 278.274C203.916 278.109 203.157 277.865 202.896 276.943C202.619 275.958 202.601 274.931 203.513 274.303C205.689 272.805 208.204 272.139 210.772 271.749C211.333 271.663 212.013 272.058 212.575 272.354C213.199 272.685 213.572 273.321 213.109 273.951C211.048 276.758 208.071 277.841 205.125 278.274Z" fill="#FBBF17"/>
</svg>
